<?xml version="1.0" encoding="UTF-8" standalone="no"?><!DOCTYPE svg PUBLIC "-//W3C//DTD SVG 1.1//EN" "http://www.w3.org/Graphics/SVG/1.1/DTD/svg11.dtd"><svg width="100%" height="100%" viewBox="0 0 50 50" version="1.1" xmlns="http://www.w3.org/2000/svg" xmlns:xlink="http://www.w3.org/1999/xlink" xml:space="preserve" xmlns:serif="http://www.serif.com/" style="fill-rule:evenodd;clip-rule:evenodd;stroke-linejoin:round;stroke-miterlimit:1.41421;"><circle cx="25" cy="25" r="15.023" style="fill:#e40200;"/><g><path d="M30.739,22.128l-0.417,0l0,-1.21l-0.064,0c-0.353,0 -0.641,-0.261 -0.641,-0.621l0,-1.374l-0.513,0l0,1.407c0,0.327 -0.289,0.621 -0.642,0.621l0,1.21l-6.892,0l0,-1.21c-0.032,0 -0.706,0.033 -0.706,-0.621l0,-1.407l-0.513,0l0,1.407c0,0.327 -0.288,0.621 -0.641,0.621l0,1.21l-0.449,0c-0.481,0 -0.897,0.392 -0.897,0.916c0,0.49 0.384,0.915 0.897,0.915l2.052,0l-1.731,6.574c-0.064,0.196 0.032,0.425 0.224,0.49c0.193,0.066 0.417,-0.032 0.481,-0.228l1.796,-6.868l0.769,1.831l1.218,0l0,0.752l-1.314,0c-0.353,0 -0.641,0.295 -0.641,0.654l0,2.257c0,0.36 0.288,0.654 0.641,0.654l4.488,0c0.353,0 0.641,-0.294 0.641,-0.654l0,-2.257c0,-0.359 -0.288,-0.654 -0.641,-0.654l-1.314,0l0,-0.752l1.218,0l0.769,-1.831l1.796,6.868c0.064,0.196 0.288,0.294 0.481,0.228c0.192,-0.065 0.288,-0.294 0.224,-0.49l-1.731,-6.639l2.052,0c0.481,0 0.897,-0.392 0.897,-0.916c0,-0.458 -0.416,-0.883 -0.897,-0.883Zm-4.617,6.214c0,0.621 -0.513,1.145 -1.122,1.145c-0.609,0 -1.122,-0.524 -1.122,-1.145c0,-0.621 0.513,-1.145 1.122,-1.145c0.609,0 1.122,0.524 1.122,1.145Z" style="fill:#fff;fill-rule:nonzero;"/><path d="M25,27.59c-0.417,0 -0.737,0.327 -0.737,0.752c0,0.425 0.32,0.752 0.737,0.752c0.385,0 0.737,-0.327 0.737,-0.752c0,-0.425 -0.352,-0.752 -0.737,-0.752Z" style="fill:#fff;fill-rule:nonzero;"/><path d="M31.188,20.068c0.833,0 1.506,-0.392 1.506,-0.392c0,0 -0.673,-0.393 -1.506,-0.393c-0.834,0 -1.283,0.164 -1.283,0.393c0,0.228 0.449,0.392 1.283,0.392Z" style="fill:#fff;fill-rule:nonzero;"/><path d="M28.815,19.676c0,-0.229 -0.417,-0.393 -1.25,-0.393c-0.834,0 -1.507,0.393 -1.507,0.393c0,0 0.673,0.392 1.507,0.392c0.833,0 1.25,-0.164 1.25,-0.392Z" style="fill:#fff;fill-rule:nonzero;"/><path d="M22.435,20.068c0.834,0 1.507,-0.392 1.507,-0.392c0,0 -0.673,-0.393 -1.507,-0.393c-0.833,0 -1.25,0.164 -1.25,0.393c0,0.228 0.417,0.392 1.25,0.392Z" style="fill:#fff;fill-rule:nonzero;"/><path d="M20.095,19.676c0,-0.229 -0.417,-0.393 -1.251,-0.393c-0.833,0 -1.538,0.393 -1.538,0.393c0,0 0.673,0.392 1.506,0.392c0.834,0 1.283,-0.164 1.283,-0.392Z" style="fill:#fff;fill-rule:nonzero;"/></g></svg>