<?xml version="1.0" encoding="UTF-8" standalone="no"?><!DOCTYPE svg PUBLIC "-//W3C//DTD SVG 1.1//EN" "http://www.w3.org/Graphics/SVG/1.1/DTD/svg11.dtd"><svg width="100%" height="100%" viewBox="0 0 50 50" version="1.1" xmlns="http://www.w3.org/2000/svg" xmlns:xlink="http://www.w3.org/1999/xlink" xml:space="preserve" xmlns:serif="http://www.serif.com/" style="fill-rule:evenodd;clip-rule:evenodd;stroke-linejoin:round;stroke-miterlimit:1.41421;"><circle cx="25" cy="25" r="15.023" style="fill:#1148e0;"/><path d="M30.379,22.62l0,-1.964l-1.963,0l0,-1.963l-10.758,0l0,8.687l1.963,0l0,1.964l1.963,0l0,1.963l10.758,0l0,-8.687l-1.963,0Zm1.051,6.662l-2.442,-2.041l-1.221,1.021l-2.365,-2.149l-2.906,2.659l0,-5.24l8.934,0l0,5.75Zm-12.86,-2.829l0,-6.848l8.919,0l0,1.051l-7.884,0l0,5.797l-1.035,0Zm1.963,1.963l0,-6.848l8.919,0l0,1.052l-7.884,0l0,5.796l-1.035,0Z" style="fill:#fff;fill-rule:nonzero;"/></svg>