<?xml version="1.0" encoding="UTF-8" standalone="no"?><!DOCTYPE svg PUBLIC "-//W3C//DTD SVG 1.1//EN" "http://www.w3.org/Graphics/SVG/1.1/DTD/svg11.dtd"><svg width="100%" height="100%" viewBox="0 0 50 50" version="1.1" xmlns="http://www.w3.org/2000/svg" xmlns:xlink="http://www.w3.org/1999/xlink" xml:space="preserve" xmlns:serif="http://www.serif.com/" style="fill-rule:evenodd;clip-rule:evenodd;stroke-linejoin:round;stroke-miterlimit:1.41421;"><path d="M31.701,20.44l-16.802,0c-1.221,0 -2.253,0.992 -2.253,2.252l0,9.279c0,1.222 0.994,2.254 2.253,2.254l16.802,0c1.222,0 2.253,-0.994 2.253,-2.254l0,-9.279c0,-1.26 -1.031,-2.252 -2.253,-2.252Z" style="fill:#fff;fill-rule:nonzero;"/><path d="M37.505,29.337c-0.535,0 -0.955,0.419 -0.955,0.954c0,0.534 0.42,0.954 0.955,0.954c0.534,0 0.955,-0.42 0.955,-0.954c0,-0.535 -0.459,-0.954 -0.955,-0.954Z" style="fill:#fff;fill-rule:nonzero;"/><path d="M34.373,38.653c0,0.458 0.383,0.84 0.841,0.84c0.458,0 0.84,-0.382 0.84,-0.84l0,-0.534l-1.718,0l0,0.534l0.037,0Z" style="fill:#fff;fill-rule:nonzero;"/><path d="M13.64,38.653c0,0.458 0.381,0.84 0.839,0.84c0.458,0 0.841,-0.382 0.841,-0.84l0,-0.534l-1.718,0l0,0.534l0.038,0Z" style="fill:#fff;fill-rule:nonzero;"/><path d="M28.416,11.504c0.078,-0.115 0.115,-0.229 0.115,-0.381c0,-0.191 -0.075,-0.383 -0.228,-0.496c-0.268,-0.192 -0.65,-0.153 -0.841,0.113l-4.314,5.804l1.527,0l3.741,-5.04Z" style="fill:#fff;fill-rule:nonzero;"/><path d="M15.854,10.779c-0.191,-0.267 -0.572,-0.305 -0.84,-0.115c-0.267,0.191 -0.305,0.572 -0.115,0.84l3.781,5.04l1.528,0l-4.354,-5.765Z" style="fill:#fff;fill-rule:nonzero;"/><path d="M37.505,22.731c-0.535,0 -0.955,0.419 -0.955,0.954c0,0.534 0.42,0.955 0.955,0.955c0.534,0 0.955,-0.421 0.955,-0.955c0,-0.535 -0.459,-0.954 -0.955,-0.954Z" style="fill:#fff;fill-rule:nonzero;"/><path d="M37.772,17.651l-25.507,0c-1.222,0 -2.253,0.994 -2.253,2.254l0,14.816c0,1.222 0.993,2.252 2.253,2.252l25.469,0c1.222,0 2.253,-0.993 2.253,-2.252l0,-14.816c0.038,-1.222 -0.993,-2.254 -2.215,-2.254Zm-2.711,14.32c0,1.871 -1.527,3.361 -3.36,3.361l-16.802,0c-1.87,0 -3.36,-1.528 -3.36,-3.361l0,-9.279c0,-1.871 1.528,-3.36 3.36,-3.36l16.802,0c1.871,0 3.36,1.527 3.36,3.36l0,9.279Zm2.444,0.421c-1.146,0 -2.062,-0.917 -2.062,-2.063c0,-1.145 0.916,-2.061 2.062,-2.061c1.145,0 2.062,0.916 2.062,2.061c0,1.107 -0.917,2.063 -2.062,2.063Zm0,-6.645c-1.146,0 -2.062,-0.917 -2.062,-2.062c0,-1.146 0.916,-2.062 2.062,-2.062c1.145,0 2.062,0.916 2.062,2.062c0,1.145 -0.917,2.062 -2.062,2.062Z" style="fill:#fff;fill-rule:nonzero;"/></svg>