<?xml version="1.0" encoding="UTF-8" standalone="no"?><!DOCTYPE svg PUBLIC "-//W3C//DTD SVG 1.1//EN" "http://www.w3.org/Graphics/SVG/1.1/DTD/svg11.dtd"><svg width="100%" height="100%" viewBox="0 0 50 50" version="1.1" xmlns="http://www.w3.org/2000/svg" xmlns:xlink="http://www.w3.org/1999/xlink" xml:space="preserve" xmlns:serif="http://www.serif.com/" style="fill-rule:evenodd;clip-rule:evenodd;stroke-linejoin:round;stroke-miterlimit:1.41421;"><path d="M21.428,10.025c-6.3,0 -11.432,5.133 -11.432,11.432c0,6.299 5.132,11.431 11.432,11.431c2.683,0 5.132,-0.933 7.057,-2.449l1.05,1.05c-0.409,0.816 -0.292,1.808 0.408,2.508l5.366,5.366c0.816,0.816 2.216,0.816 3.033,0l1.05,-1.05c0.816,-0.817 0.816,-2.217 0,-3.033l-5.366,-5.366c-0.7,-0.7 -1.692,-0.817 -2.508,-0.35l-1.05,-1.05c1.516,-1.925 2.45,-4.433 2.45,-7.116c-0.059,-6.24 -5.191,-11.373 -11.49,-11.373Zm0,2.1c5.132,0 9.332,4.199 9.332,9.332c0,5.132 -4.2,9.332 -9.332,9.332c-5.133,0 -9.332,-4.2 -9.332,-9.332c0,-5.133 4.199,-9.332 9.332,-9.332Zm-5.891,6.357c-0.583,0.992 -0.933,2.1 -0.933,3.383c0,3.558 2.857,6.357 6.357,6.357c1.341,0 2.625,-0.466 3.674,-1.166c-0.291,0.058 -0.583,0.058 -0.874,0.058c-4.55,0 -8.224,-3.674 -8.224,-8.224c0,-0.116 0,-0.291 0,-0.408Z" style="fill:#fff;fill-rule:nonzero;"/></svg>