<?xml version="1.0" encoding="UTF-8" standalone="no"?><!DOCTYPE svg PUBLIC "-//W3C//DTD SVG 1.1//EN" "http://www.w3.org/Graphics/SVG/1.1/DTD/svg11.dtd"><svg width="100%" height="100%" viewBox="0 0 50 50" version="1.1" xmlns="http://www.w3.org/2000/svg" xmlns:xlink="http://www.w3.org/1999/xlink" xml:space="preserve" xmlns:serif="http://www.serif.com/" style="fill-rule:evenodd;clip-rule:evenodd;stroke-linejoin:round;stroke-miterlimit:1.41421;"><path d="M25,4.98c11.049,0 20.02,8.971 20.02,20.02c0,11.049 -8.971,20.02 -20.02,20.02c-11.049,0 -20.02,-8.971 -20.02,-20.02c0,-11.049 8.971,-20.02 20.02,-20.02Zm8.314,24.606l-16.628,0c-0.389,0 -0.704,0.494 -0.704,1.104c0,0.61 0.315,1.105 0.704,1.105l16.628,0c0.389,0 0.704,-0.495 0.704,-1.105c0,-0.61 -0.315,-1.104 -0.704,-1.104Zm0,-5.892l-16.628,0c-0.389,0 -0.704,0.494 -0.704,1.104c0,0.61 0.315,1.105 0.704,1.105l16.628,0c0.389,0 0.704,-0.495 0.704,-1.105c0,-0.61 -0.315,-1.104 -0.704,-1.104Zm0,-5.489l-16.628,0c-0.389,0 -0.704,0.495 -0.704,1.105c0,0.61 0.315,1.104 0.704,1.104l16.628,0c0.389,0 0.704,-0.494 0.704,-1.104c0,-0.61 -0.315,-1.105 -0.704,-1.105Z" style="fill:#fff;"/><circle cx="25" cy="25" r="22.433" style="fill:none;"/></svg>