<?xml version="1.0" encoding="UTF-8" standalone="no"?><!DOCTYPE svg PUBLIC "-//W3C//DTD SVG 1.1//EN" "http://www.w3.org/Graphics/SVG/1.1/DTD/svg11.dtd"><svg width="100%" height="100%" viewBox="0 0 512 416" version="1.1" xmlns="http://www.w3.org/2000/svg" xmlns:xlink="http://www.w3.org/1999/xlink" xml:space="preserve" xmlns:serif="http://www.serif.com/" style="fill-rule:evenodd;clip-rule:evenodd;stroke-linejoin:round;stroke-miterlimit:1.41421;"><path d="M48.988,416l29.241,-106.825c-18.044,-31.27 -27.525,-66.716 -27.508,-103.064c0.052,-113.638 92.526,-206.111 206.146,-206.111c55.137,0.017 106.894,21.493 145.825,60.459c38.913,38.965 60.337,90.757 60.32,145.842c-0.052,113.655 -92.525,206.128 -206.145,206.128c-34.494,-0.017 -68.484,-8.666 -98.592,-25.098l-109.287,28.669Zm114.348,-65.988c29.051,17.247 56.784,27.577 93.461,27.595c94.432,0 171.358,-76.856 171.41,-171.34c0.034,-94.675 -76.527,-171.427 -171.271,-171.462c-94.501,0 -171.375,76.856 -171.409,171.323c-0.018,38.567 11.284,67.444 30.264,97.656l-17.316,63.232l64.861,-17.004Zm197.375,-94.709c-1.283,-2.15 -4.715,-3.432 -9.88,-6.015c-5.148,-2.583 -30.472,-15.045 -35.204,-16.761c-4.715,-1.716 -8.147,-2.583 -11.596,2.582c-3.432,5.148 -13.312,16.762 -16.311,20.194c-2.999,3.432 -6.015,3.865 -11.163,1.282c-5.148,-2.582 -21.753,-8.008 -41.426,-25.566c-15.306,-13.659 -25.654,-30.524 -28.652,-35.69c-2.999,-5.148 -0.312,-7.938 2.253,-10.504c2.323,-2.305 5.148,-6.014 7.731,-9.03c2.617,-2.982 3.466,-5.131 5.2,-8.58c1.716,-3.432 0.866,-6.448 -0.434,-9.031c-1.3,-2.565 -11.596,-27.924 -15.877,-38.237c-4.195,-10.036 -8.441,-8.684 -11.596,-8.84l-9.88,-0.174c-3.432,0 -9.013,1.283 -13.728,6.448c-4.715,5.166 -18.027,17.611 -18.027,42.97c0,25.358 18.46,49.85 21.026,53.282c2.582,3.432 36.313,55.467 87.984,77.775c12.289,5.304 21.892,8.476 29.362,10.851c12.342,3.917 23.574,3.362 32.448,2.045c9.898,-1.473 30.472,-12.463 34.771,-24.492c4.299,-12.047 4.299,-22.36 2.999,-24.509Z" style="fill:#fff;fill-rule:nonzero;"/></svg>