<?xml version="1.0" encoding="utf-8"?>
<!-- Generator: Adobe Illustrator 16.0.0, SVG Export Plug-In . SVG Version: 6.00 Build 0)  -->
<!DOCTYPE svg PUBLIC "-//W3C//DTD SVG 1.1//EN" "http://www.w3.org/Graphics/SVG/1.1/DTD/svg11.dtd">
<svg version="1.1" id="Layer_1" xmlns:serif="http://www.serif.com/"
	 xmlns="http://www.w3.org/2000/svg" xmlns:xlink="http://www.w3.org/1999/xlink" x="0px" y="0px" width="35px" height="35px"
	 viewBox="162.5 302.5 35 35" enable-background="new 162.5 302.5 35 35" xml:space="preserve">
<path fill="#FF0000" d="M235.5,304.664c0-4.507-3.659-8.167-8.167-8.167H211c-4.507,0-8.166,3.659-8.166,8.167v16.333
	c0,4.508,3.659,8.167,8.166,8.167h16.333c4.508,0,8.167-3.659,8.167-8.167V304.664z"/>
<path fill="#FF0000" d="M180.81,320l-5.909,5.905c-0.379,0.38-0.593,0.896-0.593,1.432c0,1.111,0.915,2.026,2.025,2.026
	c0.537,0,1.053-0.214,1.433-0.593l7.338-7.339c0.785-0.785,0.785-2.076,0-2.861l-7.338-7.338c-0.379-0.38-0.896-0.593-1.433-0.593
	c-1.11,0-2.024,0.914-2.024,2.024c0,0.537,0.213,1.051,0.592,1.431L180.81,320z"/>
</svg>
