<?xml version="1.0" encoding="UTF-8" standalone="no"?><!DOCTYPE svg PUBLIC "-//W3C//DTD SVG 1.1//EN" "http://www.w3.org/Graphics/SVG/1.1/DTD/svg11.dtd"><svg width="100%" height="100%" viewBox="0 0 111 68" version="1.1" xmlns="http://www.w3.org/2000/svg" xmlns:xlink="http://www.w3.org/1999/xlink" xml:space="preserve" xmlns:serif="http://www.serif.com/" style="fill-rule:evenodd;clip-rule:evenodd;stroke-linejoin:round;stroke-miterlimit:1.41421;"><path d="M42.59,42.658l-3.42,-5.986c-1.992,1.912 -4.692,3.093 -7.671,3.093c-6.126,0 -11.091,-4.966 -11.091,-11.092c0,-6.126 4.965,-11.091 11.091,-11.091c5.978,0 10.838,4.732 11.07,10.653l0.021,-0.044l0,14.467Zm12.527,-15.432c-0.258,-12.827 -10.729,-23.147 -23.618,-23.147c-13.05,0 -23.63,10.579 -23.63,23.63c0,13.05 10.58,23.63 23.63,23.63c4.009,0 7.784,-1.003 11.091,-2.765l0,2.765l12.539,0l0,-23.63l0,-0.483l-0.012,0Z" style="fill:#314049;fill-rule:nonzero;"/><path d="M103.855,22.88l-17.361,0l0,-16.397l-11.573,0l0,16.397l-17.361,0l0,12.538l17.361,0l0,17.36l11.573,0l0,-17.36l17.361,0l0,-12.538Z" style="fill:#c40872;fill-rule:nonzero;"/><path d="M22.06,59.088l0,6.085l3.433,0c0.274,0 0.484,0.067 0.63,0.2c0.147,0.133 0.22,0.3 0.22,0.502c0,0.205 -0.072,0.371 -0.217,0.499c-0.144,0.127 -0.355,0.191 -0.633,0.191l-4.088,0c-0.369,0 -0.634,-0.082 -0.796,-0.246c-0.162,-0.163 -0.242,-0.427 -0.242,-0.792l0,-6.439c0,-0.342 0.077,-0.598 0.231,-0.769c0.154,-0.171 0.356,-0.257 0.607,-0.257c0.255,0 0.461,0.085 0.619,0.254c0.157,0.169 0.236,0.426 0.236,0.772Z" style="fill:#314049;fill-rule:nonzero;"/><path d="M30.552,58.062c0.866,0 1.611,0.176 2.232,0.527c0.622,0.352 1.092,0.852 1.412,1.5c0.319,0.648 0.479,1.41 0.479,2.284c0,0.646 -0.088,1.234 -0.263,1.762c-0.175,0.529 -0.437,0.987 -0.787,1.375c-0.35,0.387 -0.779,0.684 -1.289,0.889c-0.509,0.205 -1.093,0.308 -1.75,0.308c-0.654,0 -1.24,-0.105 -1.757,-0.316c-0.517,-0.211 -0.948,-0.509 -1.294,-0.893c-0.346,-0.384 -0.607,-0.846 -0.784,-1.386c-0.177,-0.539 -0.265,-1.123 -0.265,-1.75c0,-0.643 0.092,-1.232 0.276,-1.768c0.185,-0.536 0.452,-0.992 0.801,-1.369c0.35,-0.376 0.776,-0.664 1.278,-0.864c0.502,-0.199 1.072,-0.299 1.711,-0.299Zm2.406,4.3c0,-0.612 -0.099,-1.143 -0.296,-1.591c-0.198,-0.449 -0.48,-0.788 -0.847,-1.018c-0.367,-0.23 -0.788,-0.345 -1.263,-0.345c-0.339,0 -0.652,0.063 -0.939,0.191c-0.287,0.127 -0.534,0.313 -0.741,0.556c-0.207,0.243 -0.371,0.554 -0.49,0.932c-0.12,0.378 -0.18,0.803 -0.18,1.275c0,0.475 0.06,0.905 0.18,1.289c0.119,0.383 0.289,0.702 0.507,0.955c0.219,0.253 0.47,0.442 0.753,0.567c0.283,0.126 0.594,0.188 0.932,0.188c0.434,0 0.832,-0.108 1.195,-0.325c0.363,-0.216 0.652,-0.551 0.867,-1.003c0.215,-0.453 0.322,-1.01 0.322,-1.671Z" style="fill:#314049;fill-rule:nonzero;"/><path d="M45.766,65.527c0.247,0.167 0.517,0.329 0.81,0.487c0.293,0.158 0.486,0.283 0.582,0.377c0.095,0.093 0.142,0.225 0.142,0.396c0,0.122 -0.056,0.243 -0.168,0.365c-0.112,0.122 -0.248,0.182 -0.408,0.182c-0.129,0 -0.286,-0.041 -0.47,-0.125c-0.185,-0.084 -0.401,-0.205 -0.65,-0.365c-0.249,-0.16 -0.522,-0.346 -0.819,-0.559c-0.551,0.281 -1.228,0.422 -2.03,0.422c-0.65,0 -1.233,-0.103 -1.748,-0.311c-0.515,-0.207 -0.947,-0.505 -1.297,-0.895c-0.35,-0.39 -0.613,-0.853 -0.79,-1.389c-0.177,-0.536 -0.265,-1.119 -0.265,-1.75c0,-0.643 0.092,-1.232 0.277,-1.768c0.184,-0.536 0.451,-0.992 0.801,-1.369c0.349,-0.376 0.775,-0.664 1.277,-0.864c0.502,-0.199 1.072,-0.299 1.711,-0.299c0.867,0 1.611,0.176 2.232,0.527c0.622,0.352 1.093,0.852 1.412,1.5c0.319,0.648 0.479,1.41 0.479,2.284c0,1.327 -0.359,2.378 -1.078,3.154Zm-1.329,-0.924c0.236,-0.27 0.41,-0.589 0.522,-0.958c0.112,-0.369 0.168,-0.797 0.168,-1.283c0,-0.612 -0.098,-1.143 -0.296,-1.591c-0.198,-0.449 -0.48,-0.788 -0.847,-1.018c-0.367,-0.23 -0.788,-0.345 -1.263,-0.345c-0.338,0 -0.651,0.063 -0.938,0.191c-0.287,0.127 -0.534,0.313 -0.742,0.556c-0.207,0.243 -0.37,0.554 -0.49,0.932c-0.12,0.378 -0.18,0.803 -0.18,1.275c0,0.962 0.225,1.702 0.673,2.221c0.449,0.519 1.015,0.778 1.7,0.778c0.281,0 0.57,-0.059 0.867,-0.176c-0.179,-0.134 -0.403,-0.267 -0.671,-0.4c-0.268,-0.133 -0.451,-0.235 -0.55,-0.308c-0.099,-0.072 -0.148,-0.174 -0.148,-0.308c0,-0.114 0.047,-0.214 0.142,-0.302c0.095,-0.087 0.2,-0.131 0.314,-0.131c0.346,0 0.926,0.289 1.739,0.867Z" style="fill:#314049;fill-rule:nonzero;"/><path d="M48.304,63.109l0,-4.021c0,-0.342 0.077,-0.598 0.231,-0.769c0.154,-0.171 0.356,-0.257 0.607,-0.257c0.262,0 0.47,0.086 0.624,0.257c0.154,0.171 0.231,0.427 0.231,0.769l0,4.112c0,0.468 0.053,0.858 0.157,1.172c0.105,0.314 0.29,0.557 0.556,0.73c0.266,0.173 0.639,0.259 1.118,0.259c0.661,0 1.129,-0.176 1.403,-0.527c0.274,-0.352 0.41,-0.885 0.41,-1.6l0,-4.146c0,-0.346 0.076,-0.603 0.228,-0.772c0.153,-0.169 0.356,-0.254 0.611,-0.254c0.254,0 0.461,0.085 0.618,0.254c0.158,0.169 0.237,0.426 0.237,0.772l0,4.021c0,0.654 -0.064,1.199 -0.191,1.636c-0.127,0.438 -0.368,0.822 -0.721,1.152c-0.304,0.282 -0.658,0.487 -1.061,0.616c-0.403,0.129 -0.874,0.194 -1.414,0.194c-0.643,0 -1.196,-0.069 -1.66,-0.208c-0.464,-0.139 -0.842,-0.354 -1.135,-0.644c-0.292,-0.291 -0.507,-0.664 -0.644,-1.118c-0.137,-0.454 -0.205,-0.997 -0.205,-1.628Z" style="fill:#314049;fill-rule:nonzero;"/><path d="M62.674,59.51l-3.815,0l0,2.053l3.513,0c0.259,0 0.452,0.058 0.579,0.174c0.127,0.116 0.191,0.269 0.191,0.459c0,0.19 -0.063,0.345 -0.188,0.465c-0.126,0.12 -0.32,0.18 -0.582,0.18l-3.513,0l0,2.378l3.946,0c0.267,0 0.467,0.062 0.602,0.185c0.135,0.124 0.203,0.288 0.203,0.493c0,0.198 -0.068,0.359 -0.203,0.482c-0.135,0.124 -0.335,0.186 -0.602,0.186l-4.602,0c-0.368,0 -0.633,-0.082 -0.795,-0.246c-0.162,-0.163 -0.242,-0.427 -0.242,-0.792l0,-6.285c0,-0.243 0.036,-0.442 0.108,-0.596c0.072,-0.153 0.185,-0.266 0.339,-0.336c0.154,-0.07 0.351,-0.105 0.59,-0.105l4.471,0c0.27,0 0.471,0.059 0.602,0.179c0.131,0.12 0.197,0.277 0.197,0.471c0,0.197 -0.066,0.356 -0.197,0.476c-0.131,0.12 -0.332,0.179 -0.602,0.179Z" style="fill:#314049;fill-rule:nonzero;"/><path d="M69.113,59.174l1.893,5.606l1.899,-5.646c0.099,-0.296 0.173,-0.503 0.222,-0.619c0.05,-0.116 0.131,-0.22 0.245,-0.313c0.114,-0.093 0.27,-0.14 0.468,-0.14c0.144,0 0.278,0.036 0.402,0.108c0.124,0.073 0.221,0.169 0.291,0.288c0.07,0.12 0.105,0.241 0.105,0.362c0,0.084 -0.011,0.174 -0.034,0.271c-0.023,0.097 -0.051,0.192 -0.085,0.285c-0.035,0.094 -0.069,0.19 -0.103,0.288l-2.024,5.463c-0.073,0.21 -0.145,0.408 -0.217,0.596c-0.072,0.189 -0.156,0.354 -0.251,0.497c-0.095,0.142 -0.222,0.259 -0.379,0.35c-0.158,0.091 -0.351,0.137 -0.579,0.137c-0.228,0 -0.421,-0.045 -0.579,-0.134c-0.158,-0.089 -0.285,-0.207 -0.382,-0.353c-0.097,-0.147 -0.182,-0.313 -0.254,-0.499c-0.072,-0.187 -0.144,-0.384 -0.216,-0.594l-1.991,-5.417c-0.034,-0.099 -0.069,-0.196 -0.105,-0.291c-0.036,-0.095 -0.067,-0.198 -0.091,-0.308c-0.025,-0.11 -0.037,-0.203 -0.037,-0.279c0,-0.194 0.077,-0.371 0.233,-0.531c0.156,-0.159 0.352,-0.239 0.588,-0.239c0.289,0 0.493,0.088 0.613,0.265c0.119,0.177 0.242,0.459 0.368,0.847Z" style="fill:#314049;fill-rule:nonzero;"/><path d="M81.419,59.51l-3.815,0l0,2.053l3.513,0c0.258,0 0.451,0.058 0.578,0.174c0.128,0.116 0.191,0.269 0.191,0.459c0,0.19 -0.062,0.345 -0.188,0.465c-0.125,0.12 -0.319,0.18 -0.581,0.18l-3.513,0l0,2.378l3.946,0c0.266,0 0.467,0.062 0.602,0.185c0.135,0.124 0.202,0.288 0.202,0.493c0,0.198 -0.067,0.359 -0.202,0.482c-0.135,0.124 -0.336,0.186 -0.602,0.186l-4.602,0c-0.369,0 -0.634,-0.082 -0.796,-0.246c-0.161,-0.163 -0.242,-0.427 -0.242,-0.792l0,-6.285c0,-0.243 0.036,-0.442 0.108,-0.596c0.073,-0.153 0.186,-0.266 0.34,-0.336c0.154,-0.07 0.35,-0.105 0.59,-0.105l4.471,0c0.27,0 0.47,0.059 0.601,0.179c0.132,0.12 0.197,0.277 0.197,0.471c0,0.197 -0.065,0.356 -0.197,0.476c-0.131,0.12 -0.331,0.179 -0.601,0.179Z" style="fill:#314049;fill-rule:nonzero;"/><path d="M90.053,64.055c0,0.506 -0.131,0.96 -0.391,1.363c-0.261,0.403 -0.642,0.719 -1.143,0.947c-0.502,0.228 -1.097,0.342 -1.785,0.342c-0.825,0 -1.506,-0.156 -2.042,-0.467c-0.38,-0.225 -0.689,-0.524 -0.927,-0.899c-0.237,-0.374 -0.356,-0.738 -0.356,-1.092c0,-0.205 0.071,-0.381 0.214,-0.527c0.142,-0.147 0.324,-0.22 0.544,-0.22c0.179,0 0.33,0.057 0.454,0.171c0.123,0.114 0.229,0.284 0.316,0.508c0.107,0.266 0.222,0.488 0.345,0.667c0.124,0.179 0.298,0.326 0.522,0.442c0.224,0.116 0.519,0.174 0.884,0.174c0.502,0 0.91,-0.117 1.223,-0.351c0.314,-0.234 0.471,-0.525 0.471,-0.875c0,-0.278 -0.085,-0.503 -0.254,-0.676c-0.169,-0.173 -0.388,-0.305 -0.656,-0.396c-0.268,-0.091 -0.626,-0.188 -1.075,-0.291c-0.601,-0.141 -1.103,-0.305 -1.508,-0.493c-0.405,-0.188 -0.726,-0.445 -0.964,-0.77c-0.238,-0.325 -0.356,-0.729 -0.356,-1.212c0,-0.46 0.125,-0.869 0.376,-1.226c0.251,-0.357 0.614,-0.632 1.089,-0.824c0.475,-0.192 1.034,-0.288 1.677,-0.288c0.513,0 0.957,0.064 1.331,0.191c0.375,0.127 0.686,0.297 0.933,0.508c0.247,0.211 0.427,0.432 0.541,0.664c0.115,0.232 0.172,0.458 0.172,0.678c0,0.202 -0.072,0.384 -0.214,0.545c-0.143,0.162 -0.321,0.242 -0.533,0.242c-0.194,0 -0.342,-0.048 -0.442,-0.145c-0.101,-0.097 -0.21,-0.256 -0.328,-0.476c-0.152,-0.316 -0.335,-0.562 -0.548,-0.739c-0.213,-0.176 -0.555,-0.265 -1.026,-0.265c-0.437,0 -0.79,0.096 -1.058,0.288c-0.268,0.192 -0.402,0.423 -0.402,0.693c0,0.167 0.045,0.312 0.137,0.433c0.091,0.122 0.216,0.227 0.376,0.314c0.16,0.088 0.321,0.156 0.485,0.205c0.163,0.05 0.433,0.122 0.81,0.217c0.471,0.11 0.898,0.232 1.28,0.365c0.382,0.133 0.707,0.295 0.975,0.485c0.268,0.19 0.477,0.43 0.627,0.721c0.15,0.291 0.226,0.647 0.226,1.069Z" style="fill:#314049;fill-rule:nonzero;"/></svg>