<?xml version="1.0" encoding="utf-8"?>
<!-- Generator: Adobe Illustrator 16.0.0, SVG Export Plug-In . SVG Version: 6.00 Build 0)  -->
<!DOCTYPE svg PUBLIC "-//W3C//DTD SVG 1.1//EN" "http://www.w3.org/Graphics/SVG/1.1/DTD/svg11.dtd">
<svg version="1.1" id="Layer_1" xmlns="http://www.w3.org/2000/svg" xmlns:xlink="http://www.w3.org/1999/xlink" x="0px" y="0px"
	 width="32px" height="32px" viewBox="0 0 32 32" enable-background="new 0 0 32 32" xml:space="preserve">
<g>
	<path fill="#EE003A" enable-background="new    " d="M16,0.536c-8.541,0-15.465,6.924-15.465,15.465
		c0,4.269,1.729,8.133,4.525,10.931l21.87-21.87C24.133,2.266,20.269,0.536,16,0.536z"/>
	<path fill="#A60026" d="M26.931,5.062l-21.87,21.87c2.799,2.801,6.667,4.534,10.939,4.534c8.541,0,15.465-6.924,15.465-15.465
		C31.465,11.729,29.732,7.86,26.931,5.062z"/>
</g>
<path fill-rule="evenodd" clip-rule="evenodd" fill="#A60026" d="M-303.212-119.203c2.353,1.996,4.317,4.361,6.303,6.697
	c7.233,8.509,13.052,17.904,17.511,28.145c1.031,2.367,1.054,2.358-1.524,2.361c-18.185,0.021-36.369,0.056-54.554,0.033
	c-1.176-0.001-1.408,0.31-1.326,1.418c0.558,7.55,1.071,15.103,1.546,22.658c0.062,0.984,0.513,1.047,1.296,1.045
	c8.301-0.021,16.603-0.013,24.903-0.013c0.466,0,0.931,0,1.535,0c-6.706,19.838-13.368,39.547-20.071,59.376
	c0.496,0,0.871,0,1.247,0c8.13,0,16.26-0.02,24.389,0.025c0.988,0.005,1.349-0.308,1.661-1.231
	c8.159-24.084,16.356-48.155,24.555-72.226c0.173-0.507,0.196-1.097,0.708-1.517c1.481,5.062,2.645,10.141,3.471,15.313
	c1.137,7.119,1.462,14.266,1.271,21.459c-0.298,11.244-2.37,22.162-5.995,32.782c-4.28,12.542-10.563,24.022-18.981,34.254
	c-17.278,20.996-39.204,34.361-65.926,39.75c-10.494,2.115-21.081,2.621-31.717,1.707c-14.451-1.24-28.154-5.203-41.106-11.76
	c-10.366-5.247-19.653-11.98-27.964-20.082c-0.238-0.232-0.439-0.505-0.657-0.759c-0.12-0.628,0.386-0.914,0.729-1.257
	c15.096-15.11,30.198-30.214,45.308-45.312c0.383-0.383,0.734-0.864,1.393-0.777c1.1,0.604,1.926,1.547,2.873,2.337
	c7.077,5.907,15.174,9.252,24.377,10.074c7.43,0.663,14.6-0.253,21.489-3.076c5.154-2.112,9.728-5.154,13.739-9.047
	c3.521-3.415,6.64-7.111,9.021-11.435c2.639-4.791,4.281-9.891,4.942-15.287c0.732-5.991,0.44-11.95-1.101-17.814
	c-1.843-7.015-5.337-13.111-10.275-18.399c-0.349-0.374-0.75-0.706-0.951-1.196c-0.165-0.518,0.081-0.907,0.402-1.272
	c0.255-0.29,0.532-0.557,0.804-0.828c15.018-15.018,30.033-30.037,45.061-45.045C-304.371-118.56-304.029-119.248-303.212-119.203z"
	/>
<path fill-rule="evenodd" clip-rule="evenodd" fill="#EE003A" enable-background="new    " d="M-303.212-119.203
	c-0.347,0.314-0.709,0.615-1.04,0.946c-15.246,15.241-30.49,30.485-45.729,45.733c-0.386,0.386-0.887,0.694-1.017,1.287
	c-0.683,0.153-0.997-0.396-1.373-0.764c-5.448-5.355-11.802-9.166-19.183-11.191c-5.503-1.511-11.109-1.825-16.783-1.314
	c-5.349,0.481-10.428,1.876-15.209,4.317c-8.422,4.301-14.975,10.586-19.672,18.773c-3.56,6.204-5.283,12.908-5.491,20.076
	c-0.186,6.419,0.629,12.628,3.064,18.575c2.195,5.358,5.302,10.146,9.36,14.3c0.396,0.404,0.993,0.73,0.854,1.463
	c-0.254,0.227-0.521,0.441-0.761,0.683c-15.231,15.228-30.463,30.458-45.69,45.69c-0.27,0.27-0.507,0.573-0.759,0.861
	c-8.897-8.785-16.055-18.823-21.593-30.024c-1.22-2.467-2.39-4.957-3.406-7.672c4.954,0,9.738,0,14.521,0
	c2.868,0,2.868,0,2.868-2.827c0-8.773,0.019-17.547-0.024-26.319c-0.005-1.063,0.271-1.356,1.345-1.353
	c10.656,0.04,21.313,0.001,31.968,0.057c1.251,0.007,1.45-0.412,1.441-1.522c-0.049-6.12-0.053-12.24,0.002-18.359
	c0.011-1.146-0.25-1.508-1.464-1.502c-10.613,0.052-21.227,0.008-31.84,0.061c-1.224,0.006-1.497-0.368-1.453-1.507
	c0.086-2.223,0.084-4.452-0.001-6.675c-0.039-1.051,0.325-1.255,1.299-1.252c10.785,0.032,21.569,0,32.354,0.05
	c1.193,0.006,1.469-0.323,1.46-1.48c-0.055-6.932-0.053-13.865-0.001-20.798c0.008-1.09-0.314-1.318-1.356-1.316
	c-16.434,0.034-32.867,0.023-49.3,0.023c-1.677,0-1.7-0.011-0.99-1.598c14.556-32.547,38.896-54.021,73.02-64.323
	c7.564-2.283,15.354-3.509,23.26-3.979c28.325-1.683,53.771,6.087,76.369,23.21C-310.274-125.928-306.634-122.685-303.212-119.203z"
	/>
<path fill-rule="evenodd" clip-rule="evenodd" fill="#ED003A" d="M-405.819,187.308c-3.333-2.973-5.132-6.751-5.806-11.11
	c-1.401-9.071,4.152-18.219,12.935-20.827c7.494-2.226,14.19-0.691,19.681,5.123c-0.1,0.55-0.538,0.856-0.895,1.213
	c-8.23,8.238-16.466,16.473-24.703,24.704C-404.964,186.767-405.271,187.204-405.819,187.308z"/>
<path fill-rule="evenodd" clip-rule="evenodd" fill="#A60026" d="M-498.706,142.227c0.221-0.259,0.425-0.534,0.665-0.774
	c8.454-8.46,16.912-16.918,25.372-25.373c0.24-0.239,0.515-0.445,0.773-0.667c3.288,3.007,4.944,6.821,5.313,11.184
	c0.823,9.755-5.461,18.342-15.056,20.317C-488.035,148.23-493.856,146.848-498.706,142.227z"/>
<g>
	<rect x="-184.111" y="-264.338" fill="#FFFFFF" width="27" height="85"/>
	<polyline fill="#FFFFFF" points="-94.361,-225.588 -121.111,-264.338 -148.111,-264.338 -148.111,-179.338 -121.111,-179.338 
		-121.111,-217.963 -94.111,-179.516 -94.111,-179.338 -68.111,-179.338 -68.111,-264.338 -94.111,-264.338 	"/>
	<polygon fill="#FFFFFF" points="4.889,-241.338 4.889,-264.338 -30.111,-264.338 -56.111,-264.338 -56.111,-241.338 
		-56.111,-179.338 -30.111,-179.338 -30.111,-210.338 4.889,-210.338 4.889,-231.338 -30.111,-231.338 -30.111,-241.338 	"/>
	<polygon fill="#FFFFFF" points="166.515,-264.338 139.889,-264.338 103.264,-264.338 105.139,-239.463 131.893,-239.588 
		112.649,-180.027 139.722,-180.171 168.639,-264.338 	"/>
	<path fill="#FFFFFF" d="M57.169-267.652c-25.302,0-45.813,20.289-45.813,45.314c0,25.027,20.511,45.314,45.813,45.314
		c25.303,0,45.813-20.287,45.813-45.314C102.981-247.363,82.472-267.652,57.169-267.652z M57.168-203.838
		c-10.469,0-18.955-8.395-18.955-18.75s8.486-18.75,18.955-18.75c10.47,0,18.957,8.395,18.957,18.75S67.638-203.838,57.168-203.838z
		"/>
</g>
<polygon fill="#FFFFFF" points="22.37,6.662 16.82,6.662 9.187,6.662 9.578,12.131 15.154,12.246 11.144,24.732 16.786,24.454 
	22.813,6.662 "/>
</svg>
