<?xml version="1.0" encoding="UTF-8" standalone="no"?><!DOCTYPE svg PUBLIC "-//W3C//DTD SVG 1.1//EN" "http://www.w3.org/Graphics/SVG/1.1/DTD/svg11.dtd"><svg width="100%" height="100%" viewBox="0 0 100 63" version="1.1" xmlns="http://www.w3.org/2000/svg" xmlns:xlink="http://www.w3.org/1999/xlink" xml:space="preserve" xmlns:serif="http://www.serif.com/" style="fill-rule:evenodd;clip-rule:evenodd;stroke-linejoin:round;stroke-miterlimit:1.41421;"><g><path d="M96.155,44.891c-7.33,15.093 -25.653,21.451 -40.892,14.191c-15.238,-7.261 -21.658,-25.408 -14.327,-40.501c7.33,-15.092 25.653,-21.451 40.891,-14.19c15.239,7.26 21.659,25.408 14.328,40.5Z" style="fill:#eb0c40;"/><path d="M90.469,10.558c11.711,11.872 11.618,30.894 -0.246,42.645c-11.957,11.842 -31.372,11.842 -43.329,0l-0.153,-0.168l43.728,-42.477Z" style="fill:#a5052a;"/></g><rect x="2.04" y="19.974" width="7.381" height="22.928" style="fill:#fff;"/><path d="M81.306,26.997l0,-7.023l17.839,0l-7.443,22.928l-7.645,0l5.773,-15.905l-8.524,0Z" style="fill:#fff;"/><path d="M18.829,42.902l-7.381,0l0,-22.928l7.381,0l7.648,11.526l0,-11.526l7.381,0l0,22.928l-7.381,0l-7.648,-11.092l0,11.092Z" style="fill:#fff;"/><path d="M54.295,26.115l-10.133,0l0,2.892l8.773,0l0,5.919l-8.773,0l0,7.976l-7.382,0l0,-7.976l0,-5.919l0,-2.892l0,-6.141l17.515,0l0,6.141Z" style="fill:#fff;"/><path d="M68.545,19.416c7.043,0 12.071,5.52 12.071,12.32c0,6.8 -5.028,12.321 -12.071,12.321c-7.042,0 -12.76,-5.521 -12.76,-12.321c0,-6.8 5.718,-12.32 12.76,-12.32Zm-0.471,6.652c3.24,0 5.871,2.54 5.871,5.668c0,3.129 -2.631,5.668 -5.871,5.668c-3.24,0 -5.87,-2.539 -5.87,-5.668c0,-3.128 2.63,-5.668 5.87,-5.668Z" style="fill:#fff;"/><path d="M92.523,7.34l-50.086,49.992" style="fill:none;"/></svg>