<?xml version="1.0" encoding="UTF-8" standalone="no"?><!DOCTYPE svg PUBLIC "-//W3C//DTD SVG 1.1//EN" "http://www.w3.org/Graphics/SVG/1.1/DTD/svg11.dtd"><svg width="100%" height="100%" viewBox="0 0 50 50" version="1.1" xmlns="http://www.w3.org/2000/svg" xmlns:xlink="http://www.w3.org/1999/xlink" xml:space="preserve" xmlns:serif="http://www.serif.com/" style="fill-rule:evenodd;clip-rule:evenodd;stroke-linejoin:round;stroke-miterlimit:1.41421;"><circle cx="25" cy="25" r="15.023" style="fill:#e40200;"/><g><path d="M32.997,24.623c-0.137,-0.171 -3.613,-4.212 -7.997,-4.212c-4.384,0 -7.842,4.041 -7.997,4.212c-0.188,0.223 -0.188,0.548 0,0.754c0.137,0.171 3.596,4.212 7.997,4.212c4.401,0 7.842,-4.041 7.997,-4.212c0.188,-0.223 0.188,-0.531 0,-0.754Zm-11.542,2.809c-1.489,-0.805 -2.637,-1.867 -3.202,-2.432c0.548,-0.565 1.713,-1.627 3.185,-2.432c-0.479,0.685 -0.753,1.524 -0.753,2.432c0.017,0.908 0.291,1.729 0.77,2.432Zm3.545,0.684c-1.729,0 -3.116,-1.404 -3.116,-3.116c0,-1.729 1.404,-3.116 3.116,-3.116c1.712,0 3.116,1.387 3.116,3.116c0,1.729 -1.387,3.116 -3.116,3.116Zm3.545,-0.684c0.479,-0.685 0.753,-1.524 0.753,-2.432c0,-0.908 -0.274,-1.729 -0.753,-2.432c1.489,0.788 2.637,1.867 3.184,2.432c-0.547,0.565 -1.695,1.627 -3.184,2.432Z" style="fill:#fff;fill-rule:nonzero;"/><path d="M26.182,24.897c-0.6,0 -1.079,-0.479 -1.079,-1.079c0,-0.273 0.102,-0.53 0.291,-0.719c-0.12,-0.034 -0.257,-0.034 -0.394,-0.034c-1.079,0 -1.952,0.873 -1.952,1.952c0,1.079 0.873,1.935 1.952,1.935c1.079,0 1.952,-0.873 1.952,-1.952c0,-0.137 -0.017,-0.274 -0.034,-0.394c-0.206,0.171 -0.445,0.291 -0.736,0.291Z" style="fill:#fff;fill-rule:nonzero;"/></g></svg>