<?xml version="1.0" encoding="UTF-8" standalone="no"?><!DOCTYPE svg PUBLIC "-//W3C//DTD SVG 1.1//EN" "http://www.w3.org/Graphics/SVG/1.1/DTD/svg11.dtd"><svg width="100%" height="100%" viewBox="0 0 50 50" version="1.1" xmlns="http://www.w3.org/2000/svg" xmlns:xlink="http://www.w3.org/1999/xlink" xml:space="preserve" xmlns:serif="http://www.serif.com/" style="fill-rule:evenodd;clip-rule:evenodd;stroke-linejoin:round;stroke-miterlimit:1.41421;"><circle cx="25" cy="25" r="15.023" style="fill-opacity:0.8;"/><path d="M27.691,23.755l-8.201,0c-0.682,0 -1.236,0.553 -1.236,1.236l0,6.182c0,0.683 0.554,1.236 1.236,1.236l8.201,0c0.683,0 1.237,-0.553 1.237,-1.236l0,-6.182c0,-0.683 -0.554,-1.236 -1.237,-1.236Zm-6.135,7.039l0,-5.382l4.661,2.691l-4.661,2.691Z" style="fill:#fff;fill-rule:nonzero;"/><path d="M22.478,27.009l0,2.188l1.894,-1.094l-1.894,-1.094Z" style="fill:#fff;fill-rule:nonzero;"/><path d="M29.263,30.437l1.796,1.198l0,-7.106l-1.796,1.198l0,4.71Z" style="fill:#fff;fill-rule:nonzero;"/><path d="M31.419,24.529l0,7.106c0.22,0 0.399,-0.179 0.399,-0.4l0,-6.307c0,-0.22 -0.179,-0.399 -0.399,-0.399Z" style="fill:#fff;fill-rule:nonzero;"/><circle cx="20.648" cy="21.319" r="2.089" style="fill:#fff;"/><path d="M26.026,17.455c-1.644,0 -2.977,1.332 -2.977,2.976c0,1.643 1.333,2.976 2.977,2.976c1.644,0 2.976,-1.332 2.976,-2.976c0,-1.643 -1.333,-2.976 -2.976,-2.976Z" style="fill:#fff;fill-rule:nonzero;"/></svg>