<?xml version="1.0" encoding="UTF-8" standalone="no"?><!DOCTYPE svg PUBLIC "-//W3C//DTD SVG 1.1//EN" "http://www.w3.org/Graphics/SVG/1.1/DTD/svg11.dtd"><svg width="100%" height="100%" viewBox="0 0 50 50" version="1.1" xmlns="http://www.w3.org/2000/svg" xmlns:xlink="http://www.w3.org/1999/xlink" xml:space="preserve" xmlns:serif="http://www.serif.com/" style="fill-rule:evenodd;clip-rule:evenodd;stroke-linejoin:round;stroke-miterlimit:1.41421;"><circle cx="25" cy="25" r="15.023" style="fill-opacity:0.8;"/><path d="M30.129,20.968l-2.109,0l-0.646,-1.291c-0.143,-0.287 -0.444,-0.473 -0.774,-0.473l-3.214,0c-0.33,0 -0.631,0.186 -0.775,0.473l-0.645,1.291l-2.11,0c-0.932,0 -1.678,0.746 -1.678,1.665l0,6.485c0,0.918 0.746,1.678 1.678,1.678l10.288,0c0.918,0 1.678,-0.746 1.678,-1.678l0,-6.485c-0.014,-0.919 -0.76,-1.665 -1.693,-1.665Zm-9.067,2.468c0,0.23 -0.187,0.416 -0.416,0.416l-0.603,0c-0.23,0 -0.416,-0.186 -0.416,-0.416l0,-0.602c0,-0.23 0.186,-0.417 0.416,-0.417l0.603,0c0.229,0 0.416,0.187 0.416,0.417l0,0.602Zm3.931,5.481c-1.765,0 -3.2,-1.435 -3.2,-3.2c0,-1.764 1.435,-3.199 3.2,-3.199c1.765,0 3.199,1.435 3.199,3.199c0,1.765 -1.434,3.2 -3.199,3.2Z" style="fill:#fff;fill-rule:nonzero;"/></svg>