<?xml version="1.0" encoding="UTF-8" standalone="no"?><!DOCTYPE svg PUBLIC "-//W3C//DTD SVG 1.1//EN" "http://www.w3.org/Graphics/SVG/1.1/DTD/svg11.dtd"><svg width="100%" height="100%" viewBox="0 0 50 50" version="1.1" xmlns="http://www.w3.org/2000/svg" xmlns:xlink="http://www.w3.org/1999/xlink" xml:space="preserve" xmlns:serif="http://www.serif.com/" style="fill-rule:evenodd;clip-rule:evenodd;stroke-linejoin:round;stroke-miterlimit:1.41421;"><circle cx="25" cy="25" r="15.023" style="fill:#e40200;"/><g><path d="M22.007,20.717c0.034,-0.092 0.054,-0.188 0.054,-0.287c0,-0.143 -0.04,-0.279 -0.109,-0.404c-0.014,-0.027 -0.034,-0.052 -0.051,-0.077c-0.212,-0.31 -0.617,-0.539 -1.103,-0.594c-0.074,-0.009 -0.151,-0.014 -0.229,-0.014c-0.064,0 -0.127,0.004 -0.19,0.009c-0.733,0.069 -1.303,0.526 -1.303,1.08c0,0.516 0.494,0.948 1.154,1.061c0.109,0.018 0.222,0.029 0.339,0.029c0.037,0 0.073,-0.004 0.109,-0.007c0.003,0 0.006,0 0.008,0c0.146,-0.009 0.285,-0.031 0.416,-0.067c0.148,-0.041 0.222,-0.061 0.343,-0.133c0.014,-0.008 0.007,-0.003 0.02,-0.012l0.588,0.148l-0.15,-0.528c0.051,-0.069 0.076,-0.127 0.104,-0.204Zm-0.224,-0.062c-0.025,0.061 -0.059,0.119 -0.101,0.173l0.096,0.32l-0.353,-0.104c-0.011,0.007 -0.088,0.063 -0.099,0.069c-0.103,0.057 -0.182,0.082 -0.308,0.115c-0.054,0.015 -0.111,0.026 -0.169,0.034c-0.059,0.008 -0.12,0.014 -0.181,0.017c-0.033,0.002 -0.066,0.007 -0.099,0.007c-0.059,0 -0.116,-0.007 -0.173,-0.012c-0.612,-0.058 -1.087,-0.412 -1.087,-0.844c0,-0.435 0.481,-0.794 1.1,-0.847c0.052,-0.005 0.105,-0.008 0.16,-0.008c0.066,0 0.13,0.005 0.193,0.011c0.421,0.045 0.77,0.232 0.944,0.485c0.018,0.026 0.036,0.052 0.051,0.08c0.045,0.088 0.072,0.181 0.072,0.279c0,0.078 -0.017,0.153 -0.046,0.225Z" style="fill:#ffeded;fill-rule:nonzero;"/><path d="M30.898,22.217c-0.062,-0.005 -0.125,-0.009 -0.189,-0.009c-0.079,0 -0.155,0.006 -0.23,0.014c-0.072,0.008 -0.14,0.022 -0.208,0.038c-0.031,0.007 -0.061,0.014 -0.091,0.022c-0.562,0.157 -0.964,0.551 -0.964,1.015c0,0.099 0.02,0.195 0.054,0.287c0.029,0.077 0.054,0.135 0.104,0.205l-0.15,0.527l0.588,-0.148c0.014,0.008 0.006,0.003 0.02,0.012c0.122,0.072 0.195,0.092 0.343,0.133c0.131,0.037 0.27,0.058 0.416,0.067c0.039,0.002 0.077,0.007 0.117,0.007c0.038,0 0.075,-0.002 0.112,-0.004c0.031,-0.002 0.061,-0.004 0.091,-0.007c0.727,-0.073 1.29,-0.528 1.29,-1.079c0,-0.554 -0.57,-1.011 -1.303,-1.08Zm-0.017,1.924c-0.03,0.002 -0.06,0.005 -0.091,0.006c-0.027,0.001 -0.053,0.006 -0.081,0.006c-0.034,0 -0.066,-0.004 -0.099,-0.007c-0.123,-0.006 -0.241,-0.022 -0.351,-0.051c-0.125,-0.033 -0.205,-0.058 -0.307,-0.115c-0.012,-0.006 -0.089,-0.062 -0.1,-0.069l-0.352,0.104l0.096,-0.32c-0.043,-0.054 -0.077,-0.112 -0.102,-0.173c-0.028,-0.072 -0.045,-0.147 -0.045,-0.225c0,-0.371 0.35,-0.686 0.837,-0.804c0.03,-0.007 0.063,-0.011 0.094,-0.017c0.045,-0.008 0.088,-0.018 0.134,-0.023c0.064,-0.006 0.129,-0.011 0.194,-0.011c0.055,0 0.108,0.003 0.161,0.008c0.619,0.053 1.099,0.413 1.099,0.848c0.001,0.431 -0.474,0.784 -1.087,0.843Z" style="fill:#fffdfd;fill-rule:nonzero;"/><g><path d="M20.438,19.812l0.262,0l0,0.313l-0.068,0.574l-0.125,0l-0.069,-0.574l0,-0.313Z" style="fill:#fdfafa;fill-rule:nonzero;"/><circle cx="20.569" cy="20.924" r="0.125" style="fill:#fdfafa;"/></g><g><path d="M30.454,22.742c0.065,-0.042 0.145,-0.063 0.24,-0.063c0.124,0 0.227,0.03 0.309,0.089c0.082,0.06 0.123,0.148 0.123,0.264c0,0.072 -0.018,0.132 -0.053,0.181c-0.021,0.03 -0.061,0.067 -0.12,0.114l-0.059,0.045c-0.031,0.025 -0.052,0.054 -0.063,0.087c-0.006,0.02 -0.01,0.053 -0.011,0.097l-0.223,0c0.003,-0.093 0.012,-0.157 0.026,-0.192c0.014,-0.036 0.052,-0.077 0.11,-0.123l0.061,-0.047c0.019,-0.015 0.035,-0.031 0.048,-0.049c0.021,-0.03 0.032,-0.064 0.032,-0.1c0,-0.041 -0.012,-0.079 -0.036,-0.114c-0.025,-0.034 -0.069,-0.051 -0.134,-0.051c-0.064,0 -0.109,0.021 -0.135,0.063c-0.027,0.042 -0.04,0.086 -0.04,0.132l-0.238,0c0.006,-0.156 0.061,-0.267 0.163,-0.333Z" style="fill:#e1e0e0;fill-rule:nonzero;"/><circle cx="30.709" cy="23.792" r="0.123" style="fill:#e1e0e0;"/></g><path d="M23.158,24.038c0.004,-0.022 -0.004,-0.03 -0.007,-0.032c-0.008,-0.009 -0.024,-0.016 -0.044,-0.019l-0.169,0.001l-0.004,0c-0.004,-0.001 -0.008,-0.001 -0.012,-0.001c-0.053,0 -0.12,0.035 -0.124,0.058c-0.001,0.007 0.009,0.023 0.032,0.04c0.029,0.022 0.062,0.034 0.083,0.037l0.296,0.027c0.001,-0.002 0.002,-0.004 0.003,-0.006c0.001,-0.002 0.001,-0.003 0.003,-0.005c-0.031,-0.021 -0.064,-0.053 -0.057,-0.1Z" style="fill:none;"/><path d="M22.374,23.635c-0.076,-0.055 -0.214,-0.136 -0.262,-0.141c-0.007,0.009 -0.015,0.017 -0.022,0.026c-0.009,0.01 -0.022,0.026 -0.027,0.035l0,0.001l0.437,0.351c0.01,0.007 0.024,0.012 0.038,0.012c0.022,0 0.042,-0.011 0.055,-0.028c0.022,-0.03 0.016,-0.073 -0.014,-0.095l-0.205,-0.161Z" style="fill:none;"/><path d="M22.007,20.717c-0.028,0.077 -0.053,0.135 -0.104,0.204l0.15,0.528l-0.588,-0.148c-0.013,0.008 -0.006,0.003 -0.02,0.012c-0.121,0.072 -0.195,0.092 -0.343,0.133c-0.131,0.036 -0.27,0.058 -0.416,0.067c-0.002,0 -0.005,0 -0.008,0c-0.147,0.258 -0.261,0.533 -0.322,0.791c-0.114,0.485 -0.158,0.846 -0.158,1.287c0,0.085 0.227,0.3 0.674,0.64c0.023,0.017 0.041,0.032 0.055,0.043c0.008,0.004 0.041,-0.002 0.058,-0.005c0.048,-0.01 0.126,-0.025 0.161,0.047l0.181,0.385c0.086,0.183 0.181,0.277 0.324,0.42c0.053,0.054 0.061,0.047 0.089,0.021c0.026,-0.025 0.056,-0.048 0.095,-0.048c0.036,0 0.08,0.02 0.137,0.077c0.107,0.107 0.061,0.454 0.048,0.518c-0.03,0.143 -0.104,0.263 -0.169,0.369c-0.11,0.178 -0.197,0.32 -0.081,0.518c0.058,0.1 0.113,0.206 0.17,0.32c0.132,0.259 0.268,0.526 0.452,0.711c0.056,0.056 0.117,0.109 0.177,0.161c0.208,0.184 0.423,0.373 0.433,0.675c0.002,0.089 -0.003,0.196 -0.009,0.309c-0.014,0.254 -0.03,0.543 0.049,0.718c0.177,0.4 0.304,0.619 0.631,0.946c0.018,0.019 0.045,0.04 0.067,0.034c0.07,-0.018 0.132,-0.229 0.172,-0.368c0.028,-0.096 0.052,-0.178 0.081,-0.224c0.149,-0.243 0.352,-0.292 0.548,-0.339c0.123,-0.03 0.25,-0.061 0.365,-0.139c0.11,-0.075 0.172,-0.186 0.237,-0.302c0.085,-0.151 0.172,-0.307 0.37,-0.383c0.305,-0.116 0.633,-0.281 0.758,-0.629c0.018,-0.051 0.008,-0.116 -0.002,-0.185c-0.011,-0.074 -0.022,-0.152 0.001,-0.222c0.034,-0.1 0.141,-0.207 0.235,-0.301c0.039,-0.039 0.076,-0.076 0.101,-0.107c0.107,-0.127 0.252,-0.301 0.222,-0.425c-0.014,-0.059 -0.069,-0.109 -0.163,-0.15l-1.217,-0.518c-0.148,-0.062 -0.231,-0.191 -0.304,-0.304c-0.067,-0.103 -0.124,-0.191 -0.214,-0.221c-0.07,-0.023 -0.151,-0.043 -0.237,-0.064c-0.252,-0.063 -0.538,-0.135 -0.688,-0.314c-0.22,-0.262 -0.771,-0.5 -1.204,-0.518c-0.173,-0.008 -0.41,0.014 -0.562,0.166c-0.116,0.116 -0.168,0.132 -0.244,0.071c-0.025,-0.021 -0.053,-0.042 -0.118,-0.042c-0.243,0 -0.271,-0.007 -0.312,-0.222c-0.004,-0.021 -0.008,-0.045 -0.013,-0.071c-0.009,-0.044 -0.014,-0.095 -0.02,-0.15c-0.015,-0.14 -0.033,-0.314 -0.115,-0.355c-0.043,-0.022 -0.111,-0.007 -0.2,0.045l-0.106,0.062l0.04,-0.116c0.002,-0.005 0.005,-0.013 0.01,-0.024c0.146,-0.383 0.102,-0.433 0.1,-0.436c0,0 -0.001,0 -0.003,0c-0.004,0 -0.013,0.001 -0.032,0.009c-0.05,0.022 -0.094,0.044 -0.133,0.063c-0.166,0.083 -0.266,0.133 -0.457,-0.058c-0.068,-0.067 -0.026,-0.392 0.028,-0.591c0.044,-0.159 0.124,-0.355 0.258,-0.389c0.05,-0.013 0.101,-0.002 0.153,0.032c0.063,-0.23 0.255,-0.304 0.411,-0.293c0.216,0.015 0.445,0.181 0.445,0.462c0,0.023 -0.003,0.048 -0.006,0.074c-0.004,0.04 -0.012,0.105 0.003,0.121c0.002,0.002 0.009,0.003 0.013,0.003c0.029,0 0.052,0.002 0.072,0.003c0.017,0.001 0.038,0.003 0.044,0.001c-0.004,-0.001 0.004,-0.009 0.008,-0.05c0.005,-0.038 0.006,-0.093 0.008,-0.151c0.005,-0.18 0.01,-0.405 0.104,-0.498c0.068,-0.069 0.171,-0.129 0.271,-0.188c0.099,-0.059 0.202,-0.119 0.248,-0.177c0.031,-0.039 0.059,-0.078 0.088,-0.117c0.107,-0.145 0.218,-0.297 0.404,-0.371c0.09,-0.036 0.141,-0.096 0.19,-0.153c0.07,-0.082 0.143,-0.168 0.311,-0.168c0.029,0 0.057,0.001 0.085,0.001c0.137,0.002 0.267,0.005 0.391,-0.047l-0.435,-0.435l0.109,0c0.081,0 0.171,-0.02 0.267,-0.041c0.179,-0.04 0.364,-0.081 0.51,0.008l0.049,0.03l-0.04,0.04c-0.024,0.024 -0.039,0.062 -0.056,0.102c-0.011,0.027 -0.022,0.055 -0.037,0.08c0.117,0.063 0.207,0.03 0.255,-0.027c0.058,-0.07 0.066,-0.191 -0.032,-0.288l-0.428,-0.428c-0.019,-0.019 -0.063,-0.014 -0.109,-0.008c-0.063,0.008 -0.141,0.018 -0.197,-0.038c-0.087,-0.087 -0.17,-0.126 -0.254,-0.12c-0.154,0.01 -0.298,0.172 -0.418,0.33c-0.105,0.137 -0.179,0.192 -0.249,0.183c-0.079,-0.01 -0.116,-0.096 -0.155,-0.187c-0.033,-0.077 -0.071,-0.164 -0.132,-0.203l-0.048,-0.031l0.04,-0.04c0.299,-0.299 0.526,-0.316 0.904,-0.346l0.075,-0.007c0.091,-0.007 0.205,0.033 0.305,0.068c0.064,0.024 0.139,0.05 0.168,0.046c0.067,-0.01 0.172,-0.097 0.256,-0.167c0.025,-0.02 0.049,-0.04 0.071,-0.058c-0.076,-0.092 -0.147,-0.136 -0.229,-0.138l-0.065,0.006l-0.012,-0.09c0.025,-0.005 0.05,-0.007 0.073,-0.006l0.704,-0.061l0,0.048c0,0.037 -0.001,0.076 -0.002,0.114c-0.005,0.175 -0.01,0.355 0.08,0.448c0.045,0.046 0.111,0.068 0.203,0.068c0.125,0 0.304,-0.126 0.461,-0.237c0.075,-0.053 0.147,-0.103 0.213,-0.142c-0.025,-0.023 -0.053,-0.047 -0.081,-0.072c-0.132,-0.115 -0.28,-0.245 -0.326,-0.397c-0.087,-0.009 -0.174,-0.016 -0.261,-0.021c-0.011,0 -0.022,-0.001 -0.033,-0.001c-0.029,-0.002 -0.058,-0.003 -0.088,-0.004c-0.02,0 -0.041,-0.001 -0.062,-0.002c-0.05,-0.001 -0.099,-0.002 -0.149,-0.002c-0.073,0 -0.145,0.002 -0.217,0.004c-0.019,0.001 -0.037,0.002 -0.056,0.003c-0.064,0.002 -0.127,0.006 -0.19,0.011c-0.032,0.003 -0.063,0.006 -0.094,0.009c-0.031,0.002 -0.061,0.006 -0.091,0.009c-0.877,0.097 -1.694,0.391 -2.41,0.833c0.069,0.126 0.109,0.261 0.109,0.404c0,0.1 -0.02,0.195 -0.054,0.287Z" style="fill:none;"/><path d="M21.303,20.371l-0.003,-0.003c0.132,-0.106 0.268,-0.203 0.406,-0.297c-0.174,-0.253 -0.523,-0.44 -0.943,-0.485c-0.064,-0.006 -0.128,-0.011 -0.194,-0.011c-0.054,0 -0.107,0.003 -0.16,0.008c-0.619,0.053 -1.1,0.412 -1.1,0.847c0,0.432 0.475,0.786 1.088,0.844c0.269,-0.333 0.572,-0.636 0.906,-0.903Z" style="fill:none;"/><path d="M30.591,24.38c-0.145,-0.009 -0.285,-0.03 -0.415,-0.067c-0.149,-0.041 -0.222,-0.061 -0.343,-0.133c-0.015,-0.009 -0.007,-0.004 -0.02,-0.012l-0.589,0.148l0.15,-0.527c-0.05,-0.07 -0.075,-0.128 -0.104,-0.205c-0.034,-0.092 -0.053,-0.188 -0.053,-0.287c0,-0.464 0.402,-0.858 0.963,-1.015c-0.059,-0.113 -0.121,-0.224 -0.187,-0.332c-0.037,0.09 -0.079,0.182 -0.129,0.279l-0.023,0.048l-0.043,-0.031c-0.03,-0.022 -0.06,-0.044 -0.09,-0.067c-0.239,-0.18 -0.511,-0.384 -0.804,-0.241c-0.163,0.079 -0.286,0.264 -0.286,0.43c0,0.025 0.015,0.054 0.031,0.083c0.025,0.045 0.057,0.101 0.028,0.162l-0.183,0.391c-0.104,0.22 -0.045,0.397 0.019,0.585c0.041,0.126 0.085,0.256 0.082,0.404c-0.011,0.483 0.104,0.632 0.383,0.991l0.055,0.072c0.079,0.102 0.181,0.22 0.28,0.226c0.044,0.003 0.085,-0.016 0.128,-0.059l0.025,-0.024c0.09,-0.091 0.107,-0.103 0.256,-0.096c0.077,0.003 0.079,-0.01 0.086,-0.042c0.007,-0.031 0.019,-0.088 0.097,-0.105c0.05,-0.01 0.096,-0.016 0.14,-0.016c0.103,0 0.189,0.029 0.257,0.086c0.18,0.15 0.193,0.464 0.186,0.688l0,0.007c-0.012,0.45 -0.024,0.875 -0.139,1.319c-0.021,0.08 -0.07,0.185 -0.122,0.297c-0.097,0.208 -0.214,0.46 -0.162,0.59c0.21,-0.361 0.382,-0.746 0.511,-1.151c0.005,-0.015 0.011,-0.03 0.015,-0.046c0.008,-0.026 0.016,-0.053 0.024,-0.079c0.009,-0.032 0.019,-0.063 0.027,-0.095c0.006,-0.021 0.012,-0.042 0.017,-0.063c0.013,-0.047 0.025,-0.094 0.036,-0.141c0.002,-0.008 0.003,-0.014 0.005,-0.022c0.014,-0.058 0.026,-0.118 0.039,-0.177c0.001,-0.007 0.002,-0.013 0.003,-0.02c0.011,-0.052 0.02,-0.106 0.029,-0.159c0.002,-0.01 0.004,-0.02 0.005,-0.03c0.009,-0.056 0.018,-0.112 0.025,-0.168c0.001,-0.003 0.001,-0.006 0.002,-0.01c0.008,-0.062 0.015,-0.124 0.021,-0.186c0.001,-0.004 0.001,-0.007 0.001,-0.01c0.005,-0.054 0.01,-0.11 0.014,-0.164c0.001,-0.015 0.002,-0.031 0.003,-0.046c0.003,-0.045 0.005,-0.09 0.006,-0.135c0.001,-0.016 0.002,-0.032 0.002,-0.048c0.002,-0.059 0.003,-0.118 0.003,-0.177c0,-0.061 -0.001,-0.122 -0.003,-0.183c0,-0.017 -0.002,-0.033 -0.002,-0.05c-0.002,-0.047 -0.004,-0.094 -0.007,-0.141c-0.001,-0.015 -0.002,-0.031 -0.003,-0.046c-0.004,-0.061 -0.009,-0.122 -0.016,-0.183c0,-0.004 -0.001,-0.008 -0.001,-0.012c0,-0.001 0,-0.001 0,-0.002c-0.037,0.002 -0.074,0.004 -0.112,0.004c-0.041,0 -0.079,-0.005 -0.118,-0.007Z" style="fill:none;"/><path d="M27.389,20.179c-0.105,0 -0.105,0.056 -0.105,0.075c0,0.056 0.06,0.114 0.123,0.175c0.059,0.058 0.127,0.123 0.16,0.204c0.006,0.014 0.011,0.019 0.013,0.021c0.005,-0.002 0.016,-0.011 0.025,-0.033c0.008,-0.019 0.027,-0.085 -0.031,-0.163l-0.127,-0.17l0.186,0.104c0.017,0.01 0.036,0.013 0.057,0.016c0.029,0.005 0.061,0.011 0.093,0.033c-0.003,-0.024 -0.014,-0.049 -0.03,-0.073c-0.075,-0.113 -0.249,-0.189 -0.364,-0.189Z" style="fill:none;"/><path d="M23.415,24.136l0.007,0.009c0.005,0.008 0.017,0.025 0.027,0.036c0.008,-0.018 0.018,-0.039 0.037,-0.051l0.009,-0.005l0.048,-0.018l-0.1,-0.028c-0.043,0.033 -0.033,0.049 -0.028,0.057Z" style="fill:none;"/><path d="M28.625,21.776c0.075,0 0.136,-0.019 0.151,-0.047c0.023,-0.042 -0.026,-0.14 -0.068,-0.226c-0.062,-0.123 -0.131,-0.263 -0.081,-0.377c0.058,-0.131 0.137,-0.198 0.233,-0.198c0.119,0 0.237,0.1 0.351,0.197c0.09,0.076 0.183,0.154 0.246,0.154c0.012,0 0.026,-0.002 0.041,-0.015c-0.348,-0.418 -0.752,-0.786 -1.202,-1.093c-0.154,0.353 -0.167,0.506 0.136,0.808c0.039,0.039 0.053,0.079 0.043,0.118c-0.021,0.085 -0.145,0.121 -0.266,0.157c-0.042,0.012 -0.101,0.03 -0.113,0.04c-0.006,0.006 -0.008,0.012 -0.008,0.021c0.001,0.079 0.161,0.231 0.258,0.322c0.038,0.036 0.071,0.067 0.093,0.091c0.02,0.023 0.097,0.048 0.186,0.048Z" style="fill:none;"/><path d="M23.991,24.31c-0.004,0 -0.012,0 -0.018,0c0,0.005 0,0.01 0,0.015l0.03,0.185c0,0.025 -0.007,0.058 -0.016,0.097c-0.006,0.028 -0.016,0.075 -0.018,0.102c0.051,-0.008 0.113,-0.045 0.117,-0.065l-0.026,-0.2c0,-0.054 -0.045,-0.134 -0.069,-0.134Z" style="fill:none;"/><path d="M30.82,24.385c0.001,0.004 0.002,0.008 0.002,0.012c0.007,0.061 0.012,0.122 0.016,0.183c0.001,0.015 0.002,0.031 0.003,0.046c0.003,0.046 0.005,0.094 0.007,0.14c0,0.017 0.001,0.034 0.002,0.051c0.002,0.061 0.003,0.122 0.003,0.183c0,0.059 -0.001,0.118 -0.003,0.177c-0.001,0.016 -0.001,0.032 -0.002,0.048c-0.002,0.045 -0.003,0.09 -0.006,0.135c-0.001,0.015 -0.002,0.03 -0.003,0.046c-0.004,0.054 -0.009,0.11 -0.014,0.164c0,0.003 0,0.006 -0.001,0.01c-0.007,0.062 -0.013,0.124 -0.022,0.186c0,0.003 -0.001,0.007 -0.001,0.01c-0.008,0.056 -0.016,0.112 -0.025,0.168c-0.002,0.01 -0.003,0.02 -0.005,0.03c-0.009,0.053 -0.019,0.106 -0.029,0.159c-0.002,0.007 -0.003,0.013 -0.003,0.019c-0.013,0.06 -0.025,0.119 -0.039,0.178c-0.002,0.008 -0.004,0.014 -0.005,0.022c-0.012,0.047 -0.024,0.094 -0.036,0.141c-0.006,0.021 -0.011,0.042 -0.017,0.063c-0.008,0.031 -0.018,0.063 -0.027,0.095c-0.008,0.026 -0.016,0.053 -0.024,0.079c-0.004,0.016 -0.01,0.031 -0.015,0.046c-0.129,0.405 -0.301,0.79 -0.511,1.151c-0.052,-0.13 0.065,-0.382 0.162,-0.59c0.052,-0.112 0.101,-0.217 0.122,-0.297c0.115,-0.444 0.127,-0.869 0.139,-1.319l0,-0.007c0.007,-0.223 -0.006,-0.538 -0.186,-0.688c-0.068,-0.057 -0.155,-0.086 -0.257,-0.086c-0.044,0 -0.091,0.006 -0.14,0.016c-0.078,0.017 -0.09,0.074 -0.097,0.105c-0.007,0.032 -0.009,0.045 -0.087,0.041c-0.149,-0.006 -0.166,0.006 -0.255,0.097l-0.025,0.024c-0.043,0.043 -0.084,0.063 -0.128,0.059c-0.099,-0.006 -0.202,-0.124 -0.28,-0.226l-0.056,-0.072c-0.278,-0.359 -0.393,-0.508 -0.382,-0.991c0.003,-0.148 -0.041,-0.278 -0.082,-0.404c-0.063,-0.188 -0.123,-0.365 -0.02,-0.585l0.184,-0.391c0.029,-0.061 -0.003,-0.117 -0.028,-0.162c-0.016,-0.029 -0.031,-0.058 -0.031,-0.083c0,-0.166 0.123,-0.351 0.286,-0.43c0.293,-0.143 0.565,0.061 0.804,0.241c0.03,0.023 0.06,0.045 0.09,0.067l0.043,0.031l0.023,-0.048c0.05,-0.097 0.092,-0.189 0.129,-0.279c0.066,0.108 0.128,0.219 0.187,0.332c0.03,-0.008 0.061,-0.015 0.092,-0.022c-0.078,-0.149 -0.159,-0.296 -0.25,-0.438l-0.049,-0.077l-0.002,0.004c-0.11,-0.169 -0.23,-0.331 -0.357,-0.487l0.002,-0.004l-0.021,-0.025c-0.371,-0.452 -0.806,-0.846 -1.292,-1.17l-0.044,-0.03l-0.002,0.003c-0.759,-0.498 -1.639,-0.827 -2.585,-0.933l-0.001,0l-0.026,-0.003c-0.008,-0.001 -0.015,-0.001 -0.022,-0.002c-0.016,-0.002 -0.032,-0.003 -0.049,-0.005c-0.033,-0.003 -0.067,-0.006 -0.101,-0.009c-0.025,-0.002 -0.05,-0.003 -0.075,-0.005c-0.026,-0.002 -0.051,-0.003 -0.077,-0.004c-0.035,-0.002 -0.071,-0.004 -0.107,-0.005c-0.016,0 -0.032,-0.001 -0.047,-0.002c-0.053,-0.001 -0.104,-0.002 -0.157,-0.002c-0.048,0 -0.096,0.001 -0.144,0.002c-0.011,0 -0.021,0.001 -0.031,0.001c-0.041,0.001 -0.081,0.003 -0.121,0.005c-0.006,0 -0.012,0 -0.019,0.001c-1.002,0.051 -1.95,0.352 -2.794,0.874c0.017,0.026 0.037,0.051 0.052,0.077c0.716,-0.442 1.533,-0.736 2.409,-0.833c0.03,-0.003 0.061,-0.007 0.091,-0.009c0.032,-0.003 0.063,-0.006 0.094,-0.009c0.064,-0.005 0.127,-0.009 0.191,-0.011c0.018,-0.001 0.037,-0.002 0.056,-0.003c0.072,-0.002 0.144,-0.004 0.216,-0.004c0.05,0 0.1,0.001 0.15,0.002c0.02,0 0.041,0.002 0.062,0.002c0.029,0.001 0.058,0.002 0.088,0.004c0.01,0 0.021,0.001 0.032,0.001c0.088,0.005 0.175,0.012 0.262,0.021c0.046,0.152 0.193,0.282 0.325,0.397c0.029,0.025 0.056,0.049 0.082,0.072c-0.067,0.039 -0.138,0.089 -0.213,0.142c-0.158,0.111 -0.336,0.237 -0.462,0.237c-0.091,0 -0.158,-0.022 -0.202,-0.068c-0.09,-0.093 -0.085,-0.273 -0.081,-0.448c0.001,-0.038 0.003,-0.077 0.003,-0.114l0,-0.048l-0.705,0.061c-0.023,-0.001 -0.047,0.001 -0.073,0.006l0.012,0.09l0.065,-0.006c0.083,0.002 0.154,0.046 0.23,0.138c-0.023,0.018 -0.047,0.038 -0.072,0.058c-0.084,0.07 -0.188,0.157 -0.256,0.167c-0.029,0.004 -0.103,-0.022 -0.168,-0.046c-0.1,-0.035 -0.213,-0.075 -0.304,-0.068l-0.077,0.006c-0.377,0.03 -0.604,0.048 -0.903,0.347l-0.04,0.04l0.047,0.031c0.062,0.039 0.1,0.126 0.133,0.203c0.039,0.091 0.076,0.177 0.155,0.187c0.07,0.008 0.144,-0.046 0.249,-0.184c0.12,-0.157 0.264,-0.319 0.417,-0.33c0.084,-0.005 0.168,0.034 0.255,0.121c0.056,0.056 0.134,0.046 0.197,0.038c0.046,-0.006 0.09,-0.012 0.109,0.008l0.428,0.428c0.097,0.097 0.09,0.218 0.032,0.288c-0.048,0.056 -0.138,0.09 -0.255,0.027c0.015,-0.026 0.026,-0.053 0.037,-0.08c0.016,-0.04 0.032,-0.078 0.055,-0.102l0.041,-0.04l-0.049,-0.03c-0.146,-0.089 -0.331,-0.048 -0.51,-0.008c-0.096,0.021 -0.187,0.041 -0.267,0.041l-0.109,0l0.434,0.435c-0.123,0.051 -0.253,0.049 -0.39,0.047c-0.028,-0.001 -0.057,-0.001 -0.085,-0.001c-0.168,0 -0.241,0.085 -0.311,0.168c-0.05,0.057 -0.101,0.117 -0.19,0.153c-0.186,0.074 -0.297,0.225 -0.405,0.371c-0.028,0.039 -0.057,0.078 -0.087,0.116c-0.046,0.058 -0.149,0.119 -0.249,0.178c-0.099,0.058 -0.202,0.119 -0.27,0.188c-0.094,0.093 -0.1,0.318 -0.104,0.498c-0.002,0.058 -0.003,0.113 -0.008,0.151c-0.005,0.041 -0.012,0.049 -0.008,0.049c-0.006,0.003 -0.027,0.001 -0.044,0c-0.02,-0.002 -0.044,-0.003 -0.072,-0.003c-0.004,0 -0.011,-0.001 -0.014,-0.004c-0.014,-0.015 -0.006,-0.081 -0.002,-0.12c0.003,-0.027 0.005,-0.052 0.005,-0.074c0,-0.281 -0.229,-0.447 -0.444,-0.462c-0.156,-0.011 -0.348,0.063 -0.411,0.293c-0.052,-0.035 -0.103,-0.045 -0.153,-0.032c-0.134,0.034 -0.215,0.23 -0.258,0.389c-0.054,0.198 -0.096,0.523 -0.028,0.591c0.19,0.191 0.291,0.141 0.457,0.058c0.039,-0.019 0.082,-0.041 0.133,-0.063c0.019,-0.008 0.028,-0.009 0.032,-0.009c0.002,0 0.003,0 0.003,0c0.002,0.002 0.046,0.053 -0.1,0.436c-0.005,0.011 -0.008,0.019 -0.01,0.024l-0.04,0.116l0.106,-0.062c0.089,-0.053 0.156,-0.067 0.2,-0.046c0.081,0.042 0.1,0.216 0.115,0.356c0.005,0.054 0.011,0.106 0.02,0.15c0.005,0.026 0.009,0.049 0.013,0.07c0.04,0.216 0.068,0.223 0.312,0.223c0.065,0 0.092,0.021 0.118,0.042c0.076,0.06 0.128,0.045 0.244,-0.072c0.151,-0.151 0.389,-0.173 0.562,-0.166c0.433,0.019 0.984,0.257 1.204,0.519c0.15,0.179 0.436,0.251 0.688,0.313c0.086,0.022 0.166,0.042 0.236,0.065c0.091,0.03 0.148,0.118 0.214,0.221c0.074,0.113 0.157,0.242 0.305,0.304l1.216,0.518c0.095,0.04 0.15,0.091 0.164,0.149c0.03,0.125 -0.115,0.299 -0.222,0.426c-0.025,0.03 -0.062,0.068 -0.101,0.107c-0.095,0.094 -0.202,0.201 -0.235,0.301c-0.023,0.07 -0.012,0.147 -0.001,0.222c0.01,0.069 0.019,0.134 0.002,0.185c-0.125,0.348 -0.453,0.513 -0.758,0.629c-0.198,0.076 -0.285,0.231 -0.37,0.382c-0.065,0.117 -0.127,0.227 -0.237,0.302c-0.115,0.079 -0.242,0.11 -0.365,0.14c-0.196,0.047 -0.399,0.096 -0.549,0.338c-0.028,0.047 -0.052,0.129 -0.08,0.224c-0.041,0.14 -0.103,0.35 -0.172,0.368c-0.022,0.006 -0.049,-0.015 -0.068,-0.034c-0.326,-0.326 -0.453,-0.545 -0.631,-0.945c-0.078,-0.176 -0.062,-0.463 -0.048,-0.718c0.006,-0.113 0.011,-0.22 0.008,-0.309c-0.009,-0.302 -0.224,-0.491 -0.432,-0.675c-0.06,-0.052 -0.121,-0.106 -0.177,-0.161c-0.185,-0.185 -0.32,-0.452 -0.452,-0.711c-0.058,-0.114 -0.112,-0.221 -0.17,-0.321c-0.116,-0.198 -0.029,-0.339 0.081,-0.517c0.065,-0.106 0.139,-0.226 0.169,-0.369c0.013,-0.064 0.059,-0.412 -0.048,-0.518c-0.057,-0.058 -0.101,-0.077 -0.137,-0.077c-0.039,0 -0.069,0.023 -0.095,0.048c-0.028,0.026 -0.036,0.032 -0.089,-0.021c-0.143,-0.143 -0.238,-0.238 -0.324,-0.421l-0.182,-0.384c-0.034,-0.072 -0.113,-0.057 -0.16,-0.047c-0.017,0.003 -0.05,0.009 -0.058,0.005c-0.014,-0.011 -0.032,-0.026 -0.055,-0.043c-0.448,-0.34 -0.674,-0.555 -0.674,-0.64c0,-0.441 0.044,-0.802 0.158,-1.287c0.061,-0.258 0.175,-0.533 0.322,-0.791c-0.037,0.002 -0.072,0.007 -0.109,0.007c-0.117,0 -0.23,-0.011 -0.339,-0.03c-0.724,0.984 -1.154,2.198 -1.154,3.51c0,3.272 2.662,5.934 5.934,5.934c2.164,0 4.061,-1.165 5.098,-2.901l0.002,0.002c0.187,-0.315 0.344,-0.645 0.469,-0.987c0.003,-0.007 0.005,-0.013 0.008,-0.02c0.014,-0.039 0.028,-0.079 0.041,-0.118c0.007,-0.019 0.013,-0.039 0.019,-0.058c0.015,-0.044 0.029,-0.089 0.043,-0.134c0.012,-0.04 0.024,-0.079 0.035,-0.119c0.005,-0.019 0.01,-0.039 0.015,-0.058c0.012,-0.043 0.023,-0.087 0.034,-0.131c0.003,-0.013 0.007,-0.027 0.01,-0.041c0.028,-0.12 0.053,-0.241 0.074,-0.364c0.002,-0.009 0.003,-0.017 0.004,-0.026c0.01,-0.056 0.018,-0.111 0.026,-0.167c0.001,-0.007 0.002,-0.014 0.003,-0.022c0.016,-0.123 0.029,-0.247 0.037,-0.372c0.002,-0.015 0.003,-0.029 0.003,-0.044c0.003,-0.047 0.006,-0.095 0.007,-0.142c0.001,-0.016 0.002,-0.033 0.002,-0.049c0.002,-0.061 0.003,-0.122 0.003,-0.183c0,-0.063 -0.001,-0.127 -0.003,-0.19c0,-0.017 -0.001,-0.034 -0.002,-0.051c-0.002,-0.051 -0.005,-0.102 -0.008,-0.153c-0.001,-0.013 -0.002,-0.026 -0.003,-0.04c-0.004,-0.063 -0.01,-0.126 -0.016,-0.189c0,0 -0.001,0 -0.001,-0.001c-0.03,0.004 -0.059,0.006 -0.09,0.008c0,0 0,0 0,0.001Zm-8.227,-0.494c-0.013,0.018 -0.033,0.028 -0.055,0.028c-0.014,0 -0.028,-0.005 -0.038,-0.012l-0.437,-0.351l0,-0.001c0.005,-0.009 0.018,-0.025 0.027,-0.035c0.007,-0.009 0.015,-0.017 0.021,-0.026c0.049,0.005 0.187,0.087 0.263,0.142l0.204,0.16c0.031,0.022 0.037,0.065 0.015,0.095Zm0.619,0.252c-0.001,0.002 -0.002,0.004 -0.003,0.006l-0.296,-0.027c-0.021,-0.003 -0.055,-0.016 -0.083,-0.037c-0.023,-0.017 -0.033,-0.033 -0.032,-0.04c0.004,-0.023 0.071,-0.058 0.124,-0.058c0.004,0 0.008,0 0.012,0.001l0.003,0l0.17,-0.001c0.02,0.003 0.035,0.01 0.043,0.018c0.003,0.003 0.011,0.011 0.008,0.033c-0.007,0.047 0.026,0.079 0.056,0.1c-0.001,0.002 -0.001,0.003 -0.002,0.005Zm0.283,-0.018l-0.009,0.005c-0.019,0.012 -0.029,0.033 -0.037,0.052c-0.01,-0.011 -0.022,-0.029 -0.027,-0.037l-0.007,-0.009c-0.005,-0.008 -0.015,-0.024 0.028,-0.057l0.1,0.028l-0.048,0.018Zm0.474,0.584c0.002,-0.027 0.012,-0.074 0.018,-0.102c0.009,-0.039 0.016,-0.072 0.016,-0.097l-0.03,-0.185c0,-0.005 0,-0.01 0,-0.015c0.006,0 0.014,0 0.018,0c0.024,0 0.069,0.08 0.069,0.134l0.026,0.2c-0.004,0.02 -0.066,0.057 -0.117,0.065Zm3.721,-4.301c-0.021,-0.003 -0.04,-0.006 -0.058,-0.017l-0.185,-0.103l0.127,0.17c0.058,0.078 0.039,0.144 0.031,0.163c-0.009,0.022 -0.02,0.031 -0.025,0.033c-0.002,-0.002 -0.007,-0.007 -0.013,-0.021c-0.034,-0.081 -0.101,-0.146 -0.16,-0.204c-0.063,-0.061 -0.123,-0.119 -0.123,-0.175c0,-0.019 0,-0.075 0.104,-0.075c0.116,0 0.29,0.076 0.364,0.189c0.016,0.024 0.027,0.048 0.03,0.072c-0.031,-0.021 -0.063,-0.027 -0.092,-0.032Zm0.656,1.229c-0.096,-0.091 -0.257,-0.243 -0.258,-0.322c0,-0.009 0.003,-0.015 0.008,-0.021c0.013,-0.01 0.071,-0.028 0.113,-0.04c0.121,-0.036 0.245,-0.072 0.266,-0.157c0.01,-0.039 -0.004,-0.079 -0.043,-0.118c-0.303,-0.302 -0.29,-0.455 -0.136,-0.808c0.45,0.307 0.854,0.675 1.202,1.093c-0.015,0.013 -0.029,0.015 -0.041,0.015c-0.063,0 -0.156,-0.078 -0.246,-0.154c-0.114,-0.097 -0.232,-0.197 -0.351,-0.197c-0.096,0 -0.175,0.067 -0.233,0.198c-0.05,0.114 0.019,0.254 0.081,0.377c0.042,0.086 0.091,0.184 0.068,0.226c-0.015,0.029 -0.076,0.047 -0.151,0.047c-0.089,0 -0.166,-0.025 -0.186,-0.048c-0.022,-0.024 -0.055,-0.055 -0.093,-0.091Z" style="fill:#fff;fill-rule:nonzero;"/></g></svg>