<?xml version="1.0" encoding="UTF-8" standalone="no"?><!DOCTYPE svg PUBLIC "-//W3C//DTD SVG 1.1//EN" "http://www.w3.org/Graphics/SVG/1.1/DTD/svg11.dtd"><svg width="100%" height="100%" viewBox="0 0 50 50" version="1.1" xmlns="http://www.w3.org/2000/svg" xmlns:xlink="http://www.w3.org/1999/xlink" xml:space="preserve" xmlns:serif="http://www.serif.com/" style="fill-rule:evenodd;clip-rule:evenodd;stroke-linejoin:round;stroke-miterlimit:1.41421;"><circle cx="25" cy="25" r="15.023" style="fill:#2a54c7;"/><g><path d="M28.178,22.838l-7.968,0c-0.579,0 -1.068,0.47 -1.068,1.067l0,4.401c0,0.579 0.471,1.068 1.068,1.068l7.968,0c0.579,0 1.068,-0.471 1.068,-1.068l0,-4.401c0,-0.597 -0.489,-1.067 -1.068,-1.067Z" style="fill:#fff;fill-rule:nonzero;"/><path d="M30.93,27.056c-0.254,0 -0.453,0.199 -0.453,0.453c0,0.253 0.199,0.452 0.453,0.452c0.253,0 0.452,-0.199 0.452,-0.452c0,-0.254 -0.217,-0.453 -0.452,-0.453Z" style="fill:#fff;fill-rule:nonzero;"/><path d="M29.445,31.474c0,0.217 0.181,0.399 0.399,0.399c0.217,0 0.398,-0.182 0.398,-0.399l0,-0.253l-0.815,0l0,0.253l0.018,0Z" style="fill:#fff;fill-rule:nonzero;"/><path d="M19.613,31.474c0,0.217 0.181,0.399 0.398,0.399c0.217,0 0.399,-0.182 0.399,-0.399l0,-0.253l-0.815,0l0,0.253l0.018,0Z" style="fill:#fff;fill-rule:nonzero;"/><path d="M26.62,18.6c0.037,-0.054 0.055,-0.108 0.055,-0.181c0,-0.09 -0.036,-0.181 -0.109,-0.235c-0.127,-0.091 -0.308,-0.072 -0.398,0.054l-2.046,2.752l0.724,0l1.774,-2.39Z" style="fill:#fff;fill-rule:nonzero;"/><path d="M20.663,18.257c-0.09,-0.127 -0.271,-0.145 -0.398,-0.055c-0.127,0.091 -0.145,0.271 -0.055,0.398l1.793,2.39l0.725,0l-2.065,-2.733Z" style="fill:#fff;fill-rule:nonzero;"/><path d="M30.93,23.924c-0.254,0 -0.453,0.199 -0.453,0.453c0,0.253 0.199,0.452 0.453,0.452c0.253,0 0.452,-0.199 0.452,-0.452c0,-0.254 -0.217,-0.453 -0.452,-0.453Z" style="fill:#fff;fill-rule:nonzero;"/><path d="M31.056,21.515l-12.095,0c-0.579,0 -1.068,0.471 -1.068,1.069l0,7.025c0,0.58 0.471,1.068 1.068,1.068l12.077,0c0.58,0 1.069,-0.47 1.069,-1.068l0,-7.025c0.018,-0.58 -0.471,-1.069 -1.051,-1.069Zm-1.285,6.791c0,0.887 -0.724,1.593 -1.593,1.593l-7.968,0c-0.887,0 -1.593,-0.724 -1.593,-1.593l0,-4.401c0,-0.887 0.724,-1.593 1.593,-1.593l7.968,0c0.887,0 1.593,0.724 1.593,1.593l0,4.401Zm1.159,0.199c-0.544,0 -0.978,-0.435 -0.978,-0.978c0,-0.543 0.434,-0.978 0.978,-0.978c0.543,0 0.977,0.435 0.977,0.978c0,0.525 -0.434,0.978 -0.977,0.978Zm0,-3.151c-0.544,0 -0.978,-0.435 -0.978,-0.977c0,-0.544 0.434,-0.979 0.978,-0.979c0.543,0 0.977,0.435 0.977,0.979c0,0.542 -0.434,0.977 -0.977,0.977Z" style="fill:#fff;fill-rule:nonzero;"/></g></svg>